<svg xmlns="http://www.w3.org/2000/svg" height="24" viewBox="0 0 24 24" width="24">
  <!--
    Material Symbols Rounded — "usb" (outlined), used for removable/USB drives
    Source: Material Symbols, Google Fonts (Apache 2.0)
    Color: M3 dark onSurfaceVariant (#cbc5ca)
  -->
  <path fill="#cbc5ca" d="M15 7v4h1v2h-3V5h2l-3-4-3 4h2v8H8v-2.07c.7-.37 1.2-1.08 1.2-1.93C9.2 7.9 8.3 7 7.2 7c-1.1 0-2 .9-2 2 0 .85.5 1.56 1.2 1.93V13c0 1.11.89 2 2 2h3v3.05c-.71.37-1.2 1.1-1.2 1.95 0 1.1.89 2 2 2 1.1 0 2-.9 2-2 0-.85-.5-1.58-1.2-1.95V15h3c1.11 0 2-.89 2-2v-2h1V7h-4z"/>
</svg>
